# Blender 3.6.3
# www.blender.org
mtllib untitled.mtl
o PineTree
v 0.078756 4.981087 1.416641
v 0.078756 0.519218 1.416641
v 0.078756 0.519218 -1.416641
v 0.078756 4.981087 -1.416641
v -0.013538 1.525228 0.021889
v -0.092375 0.000000 0.053333
v 0.092375 0.000000 0.053333
v 0.108488 1.525228 0.021889
v 0.047475 1.525228 -0.083788
v 0.041778 3.050457 0.000000
v 0.108488 1.525228 0.021889
v 0.047475 1.525228 -0.083788
v -0.000000 0.000000 -0.106666
v -0.092375 0.000000 0.053333
v -0.013538 1.525228 0.021889
v 0.108488 1.525228 0.021889
v 0.041778 3.050457 0.000000
v -0.013538 1.525228 0.021889
v -1.337885 4.981087 0.000000
v -1.337885 0.519218 0.000000
v 1.495396 0.519218 0.000000
v 1.495396 4.981087 0.000000
v 0.108488 1.525228 0.021889
v 0.092375 0.000000 0.053333
v -0.000000 0.000000 -0.106666
v 0.047475 1.525228 -0.083788
v -0.013538 1.525228 0.021889
v 0.041778 3.050457 0.000000
v 0.047475 1.525228 -0.083788
v -0.000000 0.000000 -0.106666
v 0.092375 0.000000 0.053333
v -0.092375 0.000000 0.053333
vn 1.0000 -0.0000 -0.0000
vn -0.0000 0.0206 0.9998
vn 0.8656 0.0307 -0.4998
vn -0.8655 0.0344 -0.4997
vn -0.0000 0.0144 0.9999
vn -0.0000 -0.0000 1.0000
vn 0.8659 -0.0195 -0.4999
vn -0.8658 0.0242 -0.4999
vn -0.0000 -1.0000 -0.0000
vt 0.011502 0.997823
vt 0.011502 0.118635
vt 0.988498 0.118635
vt 0.988498 0.997823
vt 0.452074 0.287128
vt 0.443575 0.001998
vt 0.504054 0.003517
vt 0.490470 0.285474
vt 0.454548 0.286607
vt 0.477391 0.572328
vt 0.494532 0.286607
vt 0.454206 0.288163
vt 0.441866 0.003281
vt 0.502362 0.001998
vt 0.494163 0.287316
vt 0.476129 0.567609
vt 0.010589 0.996882
vt 0.010589 0.116051
vt 0.989411 0.116051
vt 0.989411 0.996882
vt 0.500815 0.000968
vt 0.440277 0.000968
vt 0.477139 0.571353
vt 0.490109 0.002407
vt 0.490109 0.037000
vt 0.437682 0.019704
s 0
usemtl pine_tree
f 1/1/1 2/2/1 3/3/1
f 1/1/1 3/3/1 4/4/1
f 5/5/2 6/6/2 7/7/2
f 5/5/2 7/7/2 8/8/2
f 9/9/3 10/10/3 11/11/3
f 12/12/4 13/13/4 14/14/4
f 12/12/4 14/14/4 15/15/4
f 16/8/5 17/16/5 18/5/5
f 19/17/6 20/18/6 21/19/6
f 19/17/6 21/19/6 22/20/6
f 23/11/7 24/21/7 25/22/7
f 23/11/7 25/22/7 26/9/7
f 27/15/8 28/23/8 29/12/8
f 30/24/9 31/25/9 32/26/9
